{
  "asset": {
    "version": "2.0",
    "generator": "Sketchup glTF Exporter v1.2.6 by Centaur"
  },
  "scene": 0,
  "scenes": [
    {
      "nodes": [
        0
      ]
    }
  ],
  "samplers": [
    {
    }
  ],
  "nodes": [
    {
      "name": "root",
      "children": [
        1
      ]
    },
    {
      "mesh": 0
    }
  ],
  "materials": [
    {
      "pbrMetallicRoughness": {
        "baseColorFactor": [
          0.187,
          0.2195,
          0.1011,
          1.0
        ],
        "metallicFactor": 0.1,
        "roughnessFactor": 0.9
      },
      "name": "Color_F16"
    },
    {
      "pbrMetallicRoughness": {
        "baseColorFactor": [
          0.0697,
          0.0697,
          0.0511,
          1.0
        ],
        "metallicFactor": 0.1,
        "roughnessFactor": 0.9
      },
      "name": "Color_003"
    },
    {
      "pbrMetallicRoughness": {
        "baseColorTexture": {
          "index": 0
        },
        "roughnessFactor": 0.1
      },
      "name": "Fencing_Metal_Straight",
      "doubleSided": true
    },
    {
      "pbrMetallicRoughness": {
        "baseColorTexture": {
          "index": 1
        },
        "metallicFactor": 0.1,
        "roughnessFactor": 0.9
      },
      "name": "DSC02938#1"
    },
    {
      "pbrMetallicRoughness": {
        "baseColorTexture": {
          "index": 2
        },
        "metallicFactor": 0.1,
        "roughnessFactor": 0.9
      },
      "name": "DSC1"
    },
    {
      "pbrMetallicRoughness": {
        "baseColorTexture": {
          "index": 3
        },
        "metallicFactor": 0.1,
        "roughnessFactor": 0.9
      },
      "name": "DSC02931"
    },
    {
      "pbrMetallicRoughness": {
        "baseColorFactor": [
          0.2176,
          0.2176,
          0.2176,
          1.0
        ],
        "metallicFactor": 0.1,
        "roughnessFactor": 0.9
      },
      "name": "default material",
      "doubleSided": true
    },
    {
      "pbrMetallicRoughness": {
        "baseColorTexture": {
          "index": 4
        },
        "metallicFactor": 0.1,
        "roughnessFactor": 0.9
      },
      "name": "DSC02941 - Copy"
    },
    {
      "pbrMetallicRoughness": {
        "baseColorFactor": [
          0.1275,
          0.029,
          0.0119,
          1.0
        ],
        "metallicFactor": 0.1,
        "roughnessFactor": 0.9
      },
      "name": "Color_A06"
    },
    {
      "pbrMetallicRoughness": {
        "baseColorTexture": {
          "index": 5
        },
        "metallicFactor": 0.1,
        "roughnessFactor": 0.9
      },
      "name": "DSC02935"
    },
    {
      "pbrMetallicRoughness": {
        "baseColorTexture": {
          "index": 6
        },
        "metallicFactor": 0.1,
        "roughnessFactor": 0.9
      },
      "name": "DSC02936"
    }
  ],
  "images": [
    {
      "bufferView": 0,
      "mimeType": "image/png"
    },
    {
      "bufferView": 1,
      "mimeType": "image/jpeg"
    },
    {
      "bufferView": 2,
      "mimeType": "image/jpeg"
    },
    {
      "bufferView": 3,
      "mimeType": "image/jpeg"
    },
    {
      "bufferView": 4,
      "mimeType": "image/jpeg"
    },
    {
      "bufferView": 5,
      "mimeType": "image/jpeg"
    },
    {
      "bufferView": 6,
      "mimeType": "image/jpeg"
    }
  ],
  "textures": [
    {
      "source": 0,
      "sampler": 0
    },
    {
      "source": 1,
      "sampler": 0
    },
    {
      "source": 2,
      "sampler": 0
    },
    {
      "source": 3,
      "sampler": 0
    },
    {
      "source": 4,
      "sampler": 0
    },
    {
      "source": 5,
      "sampler": 0
    },
    {
      "source": 6,
      "sampler": 0
    }
  ],
  "meshes": [
    {
      "primitives": [
        {
          "attributes": {
            "POSITION": 0,
            "NORMAL": 1
          },
          "indices": 5,
          "mode": 4,
          "material": 0
        },
        {
          "attributes": {
            "POSITION": 0,
            "NORMAL": 1
          },
          "indices": 6,
          "mode": 4,
          "material": 1
        },
        {
          "attributes": {
            "POSITION": 2,
            "NORMAL": 3,
            "TEXCOORD_0": 4
          },
          "indices": 7,
          "mode": 4,
          "material": 2
        },
        {
          "attributes": {
            "POSITION": 2,
            "NORMAL": 3,
            "TEXCOORD_0": 4
          },
          "indices": 8,
          "mode": 4,
          "material": 3
        },
        {
          "attributes": {
            "POSITION": 2,
            "NORMAL": 3,
            "TEXCOORD_0": 4
          },
          "indices": 9,
          "mode": 4,
          "material": 4
        },
        {
          "attributes": {
            "POSITION": 2,
            "NORMAL": 3,
            "TEXCOORD_0": 4
          },
          "indices": 10,
          "mode": 4,
          "material": 5
        },
        {
          "attributes": {
            "POSITION": 0,
            "NORMAL": 1
          },
          "indices": 11,
          "mode": 4,
          "material": 6
        },
        {
          "attributes": {
            "POSITION": 2,
            "NORMAL": 3,
            "TEXCOORD_0": 4
          },
          "indices": 12,
          "mode": 4,
          "material": 7
        },
        {
          "attributes": {
            "POSITION": 0,
            "NORMAL": 1
          },
          "indices": 13,
          "mode": 4,
          "material": 8
        },
        {
          "attributes": {
            "POSITION": 2,
            "NORMAL": 3,
            "TEXCOORD_0": 4
          },
          "indices": 14,
          "mode": 4,
          "material": 9
        },
        {
          "attributes": {
            "POSITION": 2,
            "NORMAL": 3,
            "TEXCOORD_0": 4
          },
          "indices": 15,
          "mode": 4,
          "material": 10
        }
      ]
    }
  ],
  "accessors": [
    {
      "bufferView": 7,
      "componentType": 5126,
      "count": 1733,
      "type": "VEC3",
      "min": [
        -4.959005349203479,
        -0.2918437484924703,
        -5.773681208264974
      ],
      "max": [
        2.0367898474084765,
        10.191821408708018,
        2.2252970235857257
      ]
    },
    {
      "bufferView": 8,
      "componentType": 5126,
      "count": 1733,
      "type": "VEC3",
      "min": [
        -0.9996440692453737,
        -0.9991228300988575,
        -1.0
      ],
      "max": [
        0.9991228300988575,
        0.9991228300988575,
        1.0
      ]
    },
    {
      "bufferView": 9,
      "componentType": 5126,
      "count": 433,
      "type": "VEC3",
      "min": [
        -5.367400574745136,
        -0.2918437484924703,
        -5.889136514149986
      ],
      "max": [
        2.0367898474084765,
        8.355388277098267,
        2.340752329470751
      ]
    },
    {
      "bufferView": 10,
      "componentType": 5126,
      "count": 433,
      "type": "VEC3",
      "min": [
        -0.9991228300988575,
        -0.9991228300988576,
        -0.8815629960289113
      ],
      "max": [
        0.9989952211132282,
        0.9991228300988575,
        0.8739058160477159
      ]
    },
    {
      "bufferView": 11,
      "componentType": 5126,
      "count": 433,
      "type": "VEC2",
      "min": [
        -8.484632652728067,
        -42.97143056865278
      ],
      "max": [
        2.9850512315001767,
        11.46928949673821
      ]
    },
    {
      "bufferView": 12,
      "componentType": 5123,
      "count": 2160,
      "type": "SCALAR"
    },
    {
      "bufferView": 12,
      "componentType": 5123,
      "count": 972,
      "type": "SCALAR",
      "byteOffset": 4320
    },
    {
      "bufferView": 13,
      "componentType": 5123,
      "count": 36,
      "type": "SCALAR"
    },
    {
      "bufferView": 13,
      "componentType": 5123,
      "count": 30,
      "type": "SCALAR",
      "byteOffset": 72
    },
    {
      "bufferView": 13,
      "componentType": 5123,
      "count": 333,
      "type": "SCALAR",
      "byteOffset": 132
    },
    {
      "bufferView": 13,
      "componentType": 5123,
      "count": 6,
      "type": "SCALAR",
      "byteOffset": 798
    },
    {
      "bufferView": 12,
      "componentType": 5123,
      "count": 3987,
      "type": "SCALAR",
      "byteOffset": 6264
    },
    {
      "bufferView": 13,
      "componentType": 5123,
      "count": 198,
      "type": "SCALAR",
      "byteOffset": 810
    },
    {
      "bufferView": 12,
      "componentType": 5123,
      "count": 432,
      "type": "SCALAR",
      "byteOffset": 14238
    },
    {
      "bufferView": 13,
      "componentType": 5123,
      "count": 165,
      "type": "SCALAR",
      "byteOffset": 1206
    },
    {
      "bufferView": 13,
      "componentType": 5123,
      "count": 333,
      "type": "SCALAR",
      "byteOffset": 1536
    }
  ],
  "bufferViews": [
    {
      "buffer": 0,
      "byteLength": 132310
    },
    {
      "buffer": 0,
      "byteOffset": 132310,
      "byteLength": 162045
    },
    {
      "buffer": 0,
      "byteOffset": 294355,
      "byteLength": 79676
    },
    {
      "buffer": 0,
      "byteOffset": 374031,
      "byteLength": 1113725
    },
    {
      "buffer": 0,
      "byteOffset": 1487756,
      "byteLength": 182056
    },
    {
      "buffer": 0,
      "byteOffset": 1669812,
      "byteLength": 202782
    },
    {
      "buffer": 0,
      "byteOffset": 1872594,
      "byteLength": 409922
    },
    {
      "buffer": 0,
      "byteOffset": 2282520,
      "byteLength": 20796,
      "target": 34962,
      "byteStride": 12
    },
    {
      "buffer": 0,
      "byteOffset": 2303316,
      "byteLength": 20796,
      "target": 34962,
      "byteStride": 12
    },
    {
      "buffer": 0,
      "byteOffset": 2324112,
      "byteLength": 5196,
      "target": 34962,
      "byteStride": 12
    },
    {
      "buffer": 0,
      "byteOffset": 2329308,
      "byteLength": 5196,
      "target": 34962,
      "byteStride": 12
    },
    {
      "buffer": 0,
      "byteOffset": 2334504,
      "byteLength": 3464,
      "target": 34962,
      "byteStride": 8
    },
    {
      "buffer": 0,
      "byteOffset": 2337968,
      "byteLength": 15102,
      "target": 34963
    },
    {
      "buffer": 0,
      "byteOffset": 2353070,
      "byteLength": 2202,
      "target": 34963
    }
  ],
  "buffers": [
    {
      "uri": "data:application/octet-stream;base64,",
      "byteLength": 2355272
    }
  ]
}